REM DIRINDEX 1\2,1\3,1\4
REM DIRNAME cjc151,folder01,folder02,folder03
TITLE ""
FILE "147 147_TOEFL_3900.mp3" MP3
  TRACK 01 AUDIO
    TITLE "2:cjc151_6398"
    INDEX 01 00:00:00
  TRACK 02 AUDIO
    TITLE "0:"
    INDEX 01 00:01:24
  TRACK 03 AUDIO
    TITLE "3:cjc151_6399"
    INDEX 01 00:03:04
  TRACK 04 AUDIO
    TITLE "0:"
    INDEX 01 00:07:43
  TRACK 05 AUDIO
    TITLE "2:cjc151_6400"
    INDEX 01 00:09:22
  TRACK 06 AUDIO
    TITLE "0:"
    INDEX 01 00:10:45
  TRACK 07 AUDIO
    TITLE "3:cjc151_6401"
    INDEX 01 00:12:24
  TRACK 08 AUDIO
    TITLE "0:"
    INDEX 01 00:16:59
  TRACK 09 AUDIO
    TITLE "2:cjc151_6402"
    INDEX 01 00:18:39
  TRACK 10 AUDIO
    TITLE "0:"
    INDEX 01 00:19:73
  TRACK 11 AUDIO
    TITLE "3:cjc151_6403"
    INDEX 01 00:21:51
  TRACK 12 AUDIO
    TITLE "0:"
    INDEX 01 00:25:52
  TRACK 13 AUDIO
    TITLE "2:cjc151_6404"
    INDEX 01 00:27:32
  TRACK 14 AUDIO
    TITLE "0:"
    INDEX 01 00:28:51
  TRACK 15 AUDIO
    TITLE "3:cjc151_6405"
    INDEX 01 00:30:32
  TRACK 16 AUDIO
    TITLE "0:"
    INDEX 01 00:35:31
  TRACK 17 AUDIO
    TITLE "2:cjc151_6406"
    INDEX 01 00:37:10
  TRACK 18 AUDIO
    TITLE "0:"
    INDEX 01 00:38:35
  TRACK 19 AUDIO
    TITLE "3:cjc151_6407"
    INDEX 01 00:40:15
  TRACK 20 AUDIO
    TITLE "0:"
    INDEX 01 00:44:44
  TRACK 21 AUDIO
    TITLE "2:cjc151_6408"
    INDEX 01 00:46:23
  TRACK 22 AUDIO
    TITLE "0:"
    INDEX 01 00:47:44
  TRACK 23 AUDIO
    TITLE "3:cjc151_6409"
    INDEX 01 00:49:20
  TRACK 24 AUDIO
    TITLE "0:"
    INDEX 01 00:53:15
  TRACK 25 AUDIO
    TITLE "2:cjc151_6410"
    INDEX 01 00:54:68
  TRACK 26 AUDIO
    TITLE "0:"
    INDEX 01 00:55:71
  TRACK 27 AUDIO
    TITLE "3:cjc151_6411"
    INDEX 01 00:57:50
  TRACK 28 AUDIO
    TITLE "0:"
    INDEX 01 01:02:40
  TRACK 29 AUDIO
    TITLE "2:cjc151_6412"
    INDEX 01 01:04:17
  TRACK 30 AUDIO
    TITLE "0:"
    INDEX 01 01:05:46
  TRACK 31 AUDIO
    TITLE "3:cjc151_6413"
    INDEX 01 01:07:23
  TRACK 32 AUDIO
    TITLE "0:"
    INDEX 01 01:12:66
  TRACK 33 AUDIO
    TITLE "2:cjc151_6414"
    INDEX 01 01:14:43
  TRACK 34 AUDIO
    TITLE "0:"
    INDEX 01 01:15:58
  TRACK 35 AUDIO
    TITLE "3:cjc151_6415"
    INDEX 01 01:17:37
  TRACK 36 AUDIO
    TITLE "0:"
    INDEX 01 01:21:59
  TRACK 37 AUDIO
    TITLE "2:cjc151_6416"
    INDEX 01 01:23:36
  TRACK 38 AUDIO
    TITLE "0:"
    INDEX 01 01:24:45
  TRACK 39 AUDIO
    TITLE "3:cjc151_6417"
    INDEX 01 01:26:23
  TRACK 40 AUDIO
    TITLE "0:"
    INDEX 01 01:30:50
  TRACK 41 AUDIO
    TITLE "2:cjc151_6418"
    INDEX 01 01:32:27
  TRACK 42 AUDIO
    TITLE "0:"
    INDEX 01 01:33:44
  TRACK 43 AUDIO
    TITLE "3:cjc151_6419"
    INDEX 01 01:35:22
  TRACK 44 AUDIO
    TITLE "0:"
    INDEX 01 01:39:53
  TRACK 45 AUDIO
    TITLE "2:cjc151_6420"
    INDEX 01 01:41:30
  TRACK 46 AUDIO
    TITLE "0:"
    INDEX 01 01:42:39
  TRACK 47 AUDIO
    TITLE "3:cjc151_6421"
    INDEX 01 01:44:19
  TRACK 48 AUDIO
    TITLE "0:"
    INDEX 01 01:47:68
  TRACK 49 AUDIO
    TITLE "2:cjc151_6422"
    INDEX 01 01:49:47
  TRACK 50 AUDIO
    TITLE "0:"
    INDEX 01 01:51:07
  TRACK 51 AUDIO
    TITLE "3:cjc151_6423"
    INDEX 01 01:52:61
  TRACK 52 AUDIO
    TITLE "0:"
    INDEX 01 01:56:67
  TRACK 53 AUDIO
    TITLE "2:cjc151_6424"
    INDEX 01 01:58:46
  TRACK 54 AUDIO
    TITLE "0:"
    INDEX 01 01:59:34
  TRACK 55 AUDIO
    TITLE "3:cjc151_6425"
    INDEX 01 02:01:11
  TRACK 56 AUDIO
    TITLE "0:"
    INDEX 01 02:03:63
  TRACK 57 AUDIO
    TITLE "2:cjc151_6426"
    INDEX 01 02:05:42
  TRACK 58 AUDIO
    TITLE "0:"
    INDEX 01 02:06:57
  TRACK 59 AUDIO
    TITLE "3:cjc151_6427"
    INDEX 01 02:08:37
  TRACK 60 AUDIO
    TITLE "0:"
    INDEX 01 02:12:60
  TRACK 61 AUDIO
    TITLE "2:cjc151_6428"
    INDEX 01 02:14:39
  TRACK 62 AUDIO
    TITLE "0:"
    INDEX 01 02:15:43
  TRACK 63 AUDIO
    TITLE "3:cjc151_6429"
    INDEX 01 02:17:20
  TRACK 64 AUDIO
    TITLE "0:"
    INDEX 01 02:20:65
  TRACK 65 AUDIO
    TITLE "2:cjc151_6430"
    INDEX 01 02:22:45
  TRACK 66 AUDIO
    TITLE "0:"
    INDEX 01 02:24:00
  TRACK 67 AUDIO
    TITLE "3:cjc151_6431"
    INDEX 01 02:25:55
  TRACK 68 AUDIO
    TITLE "0:"
    INDEX 01 02:30:13
  TRACK 69 AUDIO
    TITLE "2:cjc151_6432"
    INDEX 01 02:31:67
  TRACK 70 AUDIO
    TITLE "0:"
    INDEX 01 02:32:63
  TRACK 71 AUDIO
    TITLE "3:cjc151_6433"
    INDEX 01 02:34:42
  TRACK 72 AUDIO
    TITLE "0:"
    INDEX 01 02:38:46
  TRACK 73 AUDIO
    TITLE "2:cjc151_6434"
    INDEX 01 02:40:25
  TRACK 74 AUDIO
    TITLE "0:"
    INDEX 01 02:41:44
  TRACK 75 AUDIO
    TITLE "3:cjc151_6435"
    INDEX 01 02:43:23
  TRACK 76 AUDIO
    TITLE "0:"
    INDEX 01 02:47:43
  TRACK 77 AUDIO
    TITLE "2:cjc151_6436"
    INDEX 01 02:49:22
  TRACK 78 AUDIO
    TITLE "0:"
    INDEX 01 02:50:41
  TRACK 79 AUDIO
    TITLE "3:cjc151_6437"
    INDEX 01 02:52:20
  TRACK 80 AUDIO
    TITLE "0:"
    INDEX 01 02:57:61
  TRACK 81 AUDIO
    TITLE "2:cjc151_6438"
    INDEX 01 02:59:40
  TRACK 82 AUDIO
    TITLE "0:"
    INDEX 01 03:00:49
  TRACK 83 AUDIO
    TITLE "3:cjc151_6439"
    INDEX 01 03:02:29
  TRACK 84 AUDIO
    TITLE "0:"
    INDEX 01 03:06:50
  TRACK 85 AUDIO
    TITLE "2:cjc151_6440"
    INDEX 01 03:08:27
  TRACK 86 AUDIO
    TITLE "0:"
    INDEX 01 03:09:52
  TRACK 87 AUDIO
    TITLE "3:cjc151_6441"
    INDEX 01 03:11:29
  TRACK 88 AUDIO
    TITLE "0:"
    INDEX 01 03:16:01
